<svg
  width="256"
  height="256"
  viewBox="0 0 256 256"
  fill="none"
  xmlns="http://www.w3.org/2000/svg"
>
  <defs>
    <linearGradient id="bgDark" x1="36" y1="22" x2="220" y2="236" gradientUnits="userSpaceOnUse">
      <stop offset="0" stop-color="#11141C" />
      <stop offset="1" stop-color="#1C2330" />
    </linearGradient>
    <linearGradient id="ringDark" x1="52" y1="46" x2="206" y2="206" gradientUnits="userSpaceOnUse">
      <stop offset="0" stop-color="#EEF3FF" />
      <stop offset="1" stop-color="#9DB7FF" />
    </linearGradient>
    <linearGradient id="stackDark" x1="112" y1="88" x2="206" y2="176" gradientUnits="userSpaceOnUse">
      <stop offset="0" stop-color="#F4F7FF" />
      <stop offset="1" stop-color="#CCDBFF" />
    </linearGradient>
    <radialGradient id="haloDark" cx="0" cy="0" r="1" gradientUnits="userSpaceOnUse" gradientTransform="translate(126 126) rotate(90) scale(112)">
      <stop stop-color="#7EA8FF" stop-opacity="0.38" />
      <stop offset="1" stop-color="#7EA8FF" stop-opacity="0" />
    </radialGradient>
  </defs>

  <rect x="20" y="20" width="216" height="216" rx="56" fill="url(#bgDark)" />
  <rect x="20" y="20" width="216" height="216" rx="56" stroke="rgba(255, 255, 255, 0.14)" stroke-width="2" />
  <circle cx="128" cy="128" r="92" fill="url(#haloDark)" />
  <circle
    cx="128"
    cy="128"
    r="74"
    stroke="url(#ringDark)"
    stroke-width="16"
    stroke-linecap="round"
    stroke-dasharray="418 165"
    transform="rotate(24 128 128)"
  />

  <g fill="url(#stackDark)">
    <rect x="126" y="88" width="76" height="24" rx="12" />
    <rect x="110" y="118" width="92" height="24" rx="12" />
    <rect x="126" y="148" width="76" height="24" rx="12" />
  </g>

  <g stroke="#7EA8FF" stroke-width="4" stroke-linecap="round" opacity="0.8">
    <path d="M106 100h18" />
    <path d="M98 130h10" />
    <path d="M106 160h18" />
  </g>
</svg>
