<svg width="256" height="256" viewBox="0 0 256 256" fill="none" xmlns="http://www.w3.org/2000/svg">
  <defs>
    <linearGradient id="fillGrad" x1="36" y1="32" x2="228" y2="232" gradientUnits="userSpaceOnUse">
      <stop stop-color="#000"/>
      <stop offset="0.5" stop-color="#fff"/>
      <stop offset="1" stop-color="#fff"/>
    </linearGradient>
    <linearGradient id="strokeGrad" x1="60" y1="48" x2="214" y2="220" gradientUnits="userSpaceOnUse">
      <stop stop-color="#000" stop-opacity="0.85"/>
      <stop offset="1" stop-color="#000" stop-opacity="0.9"/>
    </linearGradient>
    <radialGradient id="glow" cx="0" cy="0" r="1" gradientUnits="userSpaceOnUse" gradientTransform="translate(136 128) rotate(90) scale(140)">
      <stop stop-color="#fff" stop-opacity="0.18"/>
      <stop offset="1" stop-color="#fff" stop-opacity="0"/>
    </radialGradient>
  </defs>

  <!-- subtle glow -->
  <circle cx="128" cy="128" r="120" fill="url(#glow)"/>

  <!-- primary C shape -->
  <path
    d="M210 70c-24-32-72-48-116-30C48 56 22 110 34 166c10 48 54 82 106 80 30-2 58-14 78-36l-22-20c-12 14-34 24-58 24-44 0-76-30-82-70-8-48 22-94 66-106 28-8 58 0 76 20l-16 12 64-18-16-64-10 22Z"
    fill="url(#fillGrad)"
    stroke="url(#strokeGrad)"
    stroke-width="14"
    stroke-linecap="round"
    stroke-linejoin="round"
  />

  <!-- inner highlight stroke to accentuate the curve -->
  <path
    d="M198 96c-18-20-50-26-74-18-30 10-52 44-46 80 4 30 28 52 64 52 16 0 32-6 44-16l-16-16c-8 8-18 12-30 12-22 0-38-14-40-34-4-26 14-48 40-52 14-2 28 2 38 10l-12 10 46-12-12-48-8 16Z"
    fill="none"
    stroke="url(#strokeGrad)"
    stroke-width="8"
    stroke-linecap="round"
    stroke-linejoin="round"
    opacity="0.8"
  />
</svg>
