<svg
  width="256"
  height="256"
  viewBox="0 0 256 256"
  fill="none"
  xmlns="http://www.w3.org/2000/svg"
>
  <defs>
    <linearGradient id="bgLight" x1="40" y1="28" x2="220" y2="232" gradientUnits="userSpaceOnUse">
      <stop offset="0" stop-color="#F6F1E6" />
      <stop offset="1" stop-color="#E8DDC7" />
    </linearGradient>
    <linearGradient id="ringLight" x1="52" y1="48" x2="204" y2="208" gradientUnits="userSpaceOnUse">
      <stop offset="0" stop-color="#2B2116" />
      <stop offset="1" stop-color="#4C3B28" />
    </linearGradient>
    <linearGradient id="stackLight" x1="112" y1="90" x2="206" y2="176" gradientUnits="userSpaceOnUse">
      <stop offset="0" stop-color="#2F2418" />
      <stop offset="1" stop-color="#14100A" />
    </linearGradient>
    <radialGradient id="haloLight" cx="0" cy="0" r="1" gradientUnits="userSpaceOnUse" gradientTransform="translate(126 126) rotate(90) scale(110)">
      <stop stop-color="#FFFFFF" stop-opacity="0.44" />
      <stop offset="1" stop-color="#FFFFFF" stop-opacity="0" />
    </radialGradient>
  </defs>

  <rect x="20" y="20" width="216" height="216" rx="56" fill="url(#bgLight)" />
  <rect x="20" y="20" width="216" height="216" rx="56" stroke="rgba(46, 34, 23, 0.16)" stroke-width="2" />
  <circle cx="128" cy="128" r="92" fill="url(#haloLight)" />
  <circle
    cx="128"
    cy="128"
    r="74"
    stroke="url(#ringLight)"
    stroke-width="16"
    stroke-linecap="round"
    stroke-dasharray="418 165"
    transform="rotate(24 128 128)"
  />

  <g fill="url(#stackLight)">
    <rect x="126" y="88" width="76" height="24" rx="12" />
    <rect x="110" y="118" width="92" height="24" rx="12" />
    <rect x="126" y="148" width="76" height="24" rx="12" />
  </g>

  <g stroke="#9B7D56" stroke-width="4" stroke-linecap="round" opacity="0.72">
    <path d="M106 100h18" />
    <path d="M98 130h10" />
    <path d="M106 160h18" />
  </g>
</svg>
